<svg width="68" height="68" xmlns="http://www.w3.org/2000/svg" xmlns:xlink="http://www.w3.org/1999/xlink" xmlns:svgjs="http://svgjs.com/svgjs" viewBox="390 297 68 68"><svg width="68" height="68" xmlns="http://www.w3.org/2000/svg" xmlns:xlink="http://www.w3.org/1999/xlink" xmlns:svgjs="http://svgjs.com/svgjs" fill="#f5c506" opacity=".722" x="390" y="297"><svg xmlns="http://www.w3.org/2000/svg" xmlns:xlink="http://www.w3.org/1999/xlink" width="68" height="68" viewBox="2 2 67 67"><path paint-order="stroke fill markers" fill-rule="evenodd" d="M35.5 2C54.001 2 69 16.998 69 35.5 69 54 54.001 69 35.5 69 16.998 69 2 54 2 35.5 2 16.998 16.998 2 35.5 2z"/></svg></svg><svg width="20" height="35" xmlns="http://www.w3.org/2000/svg" xmlns:xlink="http://www.w3.org/1999/xlink" xmlns:svgjs="http://svgjs.com/svgjs" viewBox="0.219 0 19.562 35" fill="#f5f4f2" x="417" y="314"><svg xmlns="http://www.w3.org/2000/svg" width="20" height="35" viewBox="1.011 2.012 18.991 33.977"><path paint-order="stroke fill markers" fill-rule="evenodd" d="M1.011 4.116c0-.9.431-1.537 1.287-1.909.863-.365 1.63-.219 2.307.445l14.79 14.822c.425.423.627.929.605 1.52 0 .57-.202 1.06-.605 1.465L4.605 35.337c-.677.681-1.444.828-2.307.445-.856-.372-1.287-1.025-1.287-1.96V4.116z"/></svg></svg></svg>