<svg width="84" height="84" xmlns="http://www.w3.org/2000/svg" xmlns:xlink="http://www.w3.org/1999/xlink" xmlns:svgjs="http://svgjs.com/svgjs" viewBox="139 27 84 84"><svg width="80" height="80" xmlns="http://www.w3.org/2000/svg" xmlns:xlink="http://www.w3.org/1999/xlink" xmlns:svgjs="http://svgjs.com/svgjs" fill="#f5c506" opacity=".502" x="141" y="29"><svg xmlns="http://www.w3.org/2000/svg" xmlns:xlink="http://www.w3.org/1999/xlink" width="80" height="80" viewBox="1.174 1.895 78.652 78.652"><path paint-order="stroke fill markers" fill-rule="evenodd" d="M1.174 22.287l18.78-.713-.125-18.795 8.019 7.669.126 18.795-18.781.712-8.02-7.668zm12.17 11.638l18.78-.713L32 14.418l8.019 7.668.126 18.795-18.781.712-8.019-7.668zm47.827 45.737l-.126-18.794 18.781-.713-8.019-7.669-18.782.713.127 18.795 8.02 7.668zm-12.17-11.638l-.126-18.794 18.78-.714-8.018-7.668-18.782.713.127 18.794 8.02 7.669zm10.433-66.13l.713 18.781 18.794-.126-7.668 8.02-18.795.125-.712-18.78 7.668-8.02zm-11.638 12.17l.713 18.781 18.794-.126-7.668 8.02-18.795.126-.713-18.782 7.669-8.018zM2.059 61.893l18.793-.126.714 18.78 7.668-8.018-.713-18.782-18.794.127-7.668 8.019zm11.638-12.17l18.793-.127.714 18.782 7.669-8.02-.714-18.781-18.794.127-7.668 8.019z"/></svg></svg><svg width="84" height="84" xmlns="http://www.w3.org/2000/svg" xmlns:xlink="http://www.w3.org/1999/xlink" xmlns:svgjs="http://svgjs.com/svgjs" fill="#f5c506" x="139" y="27"><svg xmlns="http://www.w3.org/2000/svg" width="84" height="84" viewBox="1.992 1.992 83.016 83.016"><path paint-order="stroke fill markers" fill-rule="evenodd" d="M1.992 56.996L15.072 43.5 1.992 30.004h11.095L26.17 43.5 13.087 56.996H1.992zm16.84 0L31.911 43.5l-13.08-13.496h11.095L43.007 43.5l-13.08 13.496H18.83zm66.176 0L71.928 43.5l13.08-13.496H73.913L60.83 43.5l13.082 13.496h11.095zm-16.84 0L55.089 43.5l13.08-13.496H57.074L43.993 43.5l13.08 13.496H68.17zM30.005 1.992L43.5 15.072l13.497-13.08v11.095L43.499 26.168l-13.495-13.08V1.991zm0 16.84L43.5 31.911l13.497-13.08v11.095l-13.497 13.08-13.495-13.08V18.83zm0 66.176L43.5 71.928l13.497 13.08V73.913L43.499 60.83 30.004 73.913v11.095zm0-16.84L43.5 55.088l13.497 13.08V57.073L43.499 43.992 30.004 57.073v11.095z"/></svg></svg></svg>